<mxfile host="app.diagrams.net" modified="2023-11-18T22:00:18.862Z" agent="Mozilla/5.0 (Windows NT 10.0; Win64; x64) AppleWebKit/537.36 (KHTML, like Gecko) Chrome/119.0.0.0 Safari/537.36 Edg/119.0.0.0" etag="i5Msb9lUVvewc_LzrmBh" version="22.1.3" type="device">
  <diagram name="Page-1" id="KG5hG5tp0rgWgtyDTEjp">
    <mxGraphModel dx="2276" dy="785" grid="1" gridSize="10" guides="1" tooltips="1" connect="1" arrows="1" fold="1" page="1" pageScale="1" pageWidth="850" pageHeight="1100" math="0" shadow="0">
      <root>
        <mxCell id="0" />
        <mxCell id="1" parent="0" />
        <mxCell id="sXNOt7XCanMBQnYmUT4D-6" style="edgeStyle=orthogonalEdgeStyle;rounded=0;orthogonalLoop=1;jettySize=auto;html=1;entryX=0;entryY=0.5;entryDx=0;entryDy=0;" edge="1" parent="1" source="sXNOt7XCanMBQnYmUT4D-1" target="sXNOt7XCanMBQnYmUT4D-4">
          <mxGeometry relative="1" as="geometry" />
        </mxCell>
        <mxCell id="sXNOt7XCanMBQnYmUT4D-1" value="&lt;font style=&quot;font-size: 18px;&quot;&gt;TradingInternalApiController&lt;/font&gt;" style="rounded=1;whiteSpace=wrap;html=1;" vertex="1" parent="1">
          <mxGeometry x="330" y="220" width="240" height="70" as="geometry" />
        </mxCell>
        <mxCell id="sXNOt7XCanMBQnYmUT4D-3" value="&lt;font style=&quot;font-size: 18px;&quot;&gt;/internal&lt;/font&gt;" style="edgeStyle=orthogonalEdgeStyle;rounded=0;orthogonalLoop=1;jettySize=auto;html=1;entryX=0;entryY=0.5;entryDx=0;entryDy=0;" edge="1" parent="1" source="sXNOt7XCanMBQnYmUT4D-2" target="sXNOt7XCanMBQnYmUT4D-1">
          <mxGeometry relative="1" as="geometry" />
        </mxCell>
        <mxCell id="sXNOt7XCanMBQnYmUT4D-8" value="&lt;font style=&quot;font-size: 18px;&quot;&gt;/api&lt;br&gt;&lt;/font&gt;" style="edgeStyle=orthogonalEdgeStyle;rounded=0;orthogonalLoop=1;jettySize=auto;html=1;" edge="1" parent="1" source="sXNOt7XCanMBQnYmUT4D-2" target="sXNOt7XCanMBQnYmUT4D-7">
          <mxGeometry x="0.2653" y="15" relative="1" as="geometry">
            <mxPoint as="offset" />
          </mxGeometry>
        </mxCell>
        <mxCell id="sXNOt7XCanMBQnYmUT4D-2" value="&lt;font style=&quot;font-size: 18px;&quot;&gt;DispatcherServlet&lt;/font&gt;" style="rounded=1;whiteSpace=wrap;html=1;" vertex="1" parent="1">
          <mxGeometry x="-50" y="330" width="170" height="60" as="geometry" />
        </mxCell>
        <mxCell id="sXNOt7XCanMBQnYmUT4D-26" value="&lt;font style=&quot;font-size: 16px;&quot;&gt;TransferEvents are written &lt;br&gt;to topic SEQUENCE&lt;/font&gt;" style="edgeStyle=orthogonalEdgeStyle;rounded=0;orthogonalLoop=1;jettySize=auto;html=1;" edge="1" parent="1" source="sXNOt7XCanMBQnYmUT4D-4" target="sXNOt7XCanMBQnYmUT4D-25">
          <mxGeometry relative="1" as="geometry" />
        </mxCell>
        <mxCell id="sXNOt7XCanMBQnYmUT4D-4" value="&lt;font style=&quot;font-size: 18px;&quot;&gt;SendEventService&lt;br&gt;(Kafka-Producer)&lt;br&gt;&lt;/font&gt;" style="rounded=1;whiteSpace=wrap;html=1;" vertex="1" parent="1">
          <mxGeometry x="680" y="220" width="160" height="70" as="geometry" />
        </mxCell>
        <mxCell id="sXNOt7XCanMBQnYmUT4D-10" value="&lt;font style=&quot;font-size: 18px;&quot;&gt;/internal/1001/assets&lt;br&gt;&lt;/font&gt;" style="edgeStyle=orthogonalEdgeStyle;rounded=0;orthogonalLoop=1;jettySize=auto;html=1;entryX=0;entryY=0.5;entryDx=0;entryDy=0;" edge="1" parent="1" source="sXNOt7XCanMBQnYmUT4D-7" target="sXNOt7XCanMBQnYmUT4D-9">
          <mxGeometry relative="1" as="geometry">
            <mxPoint as="offset" />
          </mxGeometry>
        </mxCell>
        <mxCell id="sXNOt7XCanMBQnYmUT4D-7" value="&lt;font style=&quot;font-size: 18px;&quot;&gt;TradingApiController&lt;/font&gt;" style="rounded=1;whiteSpace=wrap;html=1;" vertex="1" parent="1">
          <mxGeometry x="330" y="360" width="240" height="70" as="geometry" />
        </mxCell>
        <mxCell id="sXNOt7XCanMBQnYmUT4D-14" style="edgeStyle=orthogonalEdgeStyle;rounded=0;orthogonalLoop=1;jettySize=auto;html=1;entryX=0;entryY=0.5;entryDx=0;entryDy=0;" edge="1" parent="1" source="sXNOt7XCanMBQnYmUT4D-9" target="sXNOt7XCanMBQnYmUT4D-12">
          <mxGeometry relative="1" as="geometry" />
        </mxCell>
        <mxCell id="sXNOt7XCanMBQnYmUT4D-9" value="&lt;font style=&quot;font-size: 18px;&quot;&gt;TradingEngineApiProxyService&lt;/font&gt;" style="rounded=1;whiteSpace=wrap;html=1;" vertex="1" parent="1">
          <mxGeometry x="780" y="360" width="260" height="70" as="geometry" />
        </mxCell>
        <mxCell id="sXNOt7XCanMBQnYmUT4D-16" style="edgeStyle=orthogonalEdgeStyle;rounded=0;orthogonalLoop=1;jettySize=auto;html=1;" edge="1" parent="1" source="sXNOt7XCanMBQnYmUT4D-12" target="sXNOt7XCanMBQnYmUT4D-15">
          <mxGeometry relative="1" as="geometry" />
        </mxCell>
        <mxCell id="sXNOt7XCanMBQnYmUT4D-12" value="&lt;h1&gt;Request&lt;/h1&gt;&lt;p&gt;&lt;font style=&quot;font-size: 15px;&quot;&gt;Request{method=GET, url=http://localhost:8002/internal/1001/assets, headers=[Accept:*/*]}&lt;/font&gt;&lt;/p&gt;" style="text;html=1;strokeColor=none;fillColor=none;spacing=5;spacingTop=-20;whiteSpace=wrap;overflow=hidden;rounded=0;" vertex="1" parent="1">
          <mxGeometry x="1170" y="340" width="370" height="110" as="geometry" />
        </mxCell>
        <mxCell id="sXNOt7XCanMBQnYmUT4D-19" value="" style="edgeStyle=orthogonalEdgeStyle;rounded=0;orthogonalLoop=1;jettySize=auto;html=1;" edge="1" parent="1" source="sXNOt7XCanMBQnYmUT4D-13" target="sXNOt7XCanMBQnYmUT4D-18">
          <mxGeometry relative="1" as="geometry" />
        </mxCell>
        <mxCell id="sXNOt7XCanMBQnYmUT4D-13" value="&lt;h1&gt;Response&lt;/h1&gt;&lt;p&gt;&lt;font style=&quot;font-size: 15px;&quot;&gt;Response{protocol=http/1.1, code=200, message=, url=http://localhost:8002/internal/1001/assets}&lt;/font&gt;&lt;/p&gt;" style="text;html=1;strokeColor=none;fillColor=none;spacing=5;spacingTop=-20;whiteSpace=wrap;overflow=hidden;rounded=0;" vertex="1" parent="1">
          <mxGeometry x="1160" y="610" width="390" height="90" as="geometry" />
        </mxCell>
        <mxCell id="sXNOt7XCanMBQnYmUT4D-17" style="edgeStyle=orthogonalEdgeStyle;rounded=0;orthogonalLoop=1;jettySize=auto;html=1;" edge="1" parent="1" source="sXNOt7XCanMBQnYmUT4D-15" target="sXNOt7XCanMBQnYmUT4D-13">
          <mxGeometry relative="1" as="geometry" />
        </mxCell>
        <mxCell id="sXNOt7XCanMBQnYmUT4D-15" value="&lt;font style=&quot;font-size: 18px;&quot;&gt;OkHttpClient&lt;/font&gt;" style="rounded=0;whiteSpace=wrap;html=1;" vertex="1" parent="1">
          <mxGeometry x="1295" y="500" width="120" height="60" as="geometry" />
        </mxCell>
        <mxCell id="sXNOt7XCanMBQnYmUT4D-21" value="" style="group" vertex="1" connectable="0" parent="1">
          <mxGeometry x="880" y="595" width="120" height="90" as="geometry" />
        </mxCell>
        <mxCell id="sXNOt7XCanMBQnYmUT4D-18" value="&lt;font style=&quot;font-size: 18px;&quot;&gt;json: {}&lt;/font&gt;" style="whiteSpace=wrap;html=1;" vertex="1" parent="sXNOt7XCanMBQnYmUT4D-21">
          <mxGeometry y="30" width="120" height="60" as="geometry" />
        </mxCell>
        <mxCell id="sXNOt7XCanMBQnYmUT4D-20" value="&lt;font style=&quot;font-size: 18px;&quot;&gt;assets&lt;/font&gt;" style="text;html=1;strokeColor=none;fillColor=none;align=center;verticalAlign=middle;whiteSpace=wrap;rounded=0;" vertex="1" parent="sXNOt7XCanMBQnYmUT4D-21">
          <mxGeometry x="30" width="60" height="30" as="geometry" />
        </mxCell>
        <mxCell id="sXNOt7XCanMBQnYmUT4D-23" value="&lt;font style=&quot;font-size: 18px;&quot;&gt;index.html&lt;/font&gt;" style="rounded=1;whiteSpace=wrap;html=1;fillColor=#dae8fc;gradientColor=#7ea6e0;strokeColor=#6c8ebf;" vertex="1" parent="1">
          <mxGeometry x="640" y="625" width="120" height="60" as="geometry" />
        </mxCell>
        <mxCell id="sXNOt7XCanMBQnYmUT4D-24" value="&lt;font style=&quot;font-size: 18px;&quot;&gt;Balance&lt;/font&gt;" style="edgeStyle=orthogonalEdgeStyle;rounded=0;orthogonalLoop=1;jettySize=auto;html=1;entryX=1;entryY=0.5;entryDx=0;entryDy=0;" edge="1" parent="1" source="sXNOt7XCanMBQnYmUT4D-18" target="sXNOt7XCanMBQnYmUT4D-23">
          <mxGeometry relative="1" as="geometry" />
        </mxCell>
        <mxCell id="sXNOt7XCanMBQnYmUT4D-25" value="&lt;font style=&quot;font-size: 18px;&quot;&gt;Kafka-Topic&lt;br&gt;SEQUENCE&lt;/font&gt;" style="rounded=1;whiteSpace=wrap;html=1;" vertex="1" parent="1">
          <mxGeometry x="1070" y="225" width="120" height="60" as="geometry" />
        </mxCell>
        <mxCell id="sXNOt7XCanMBQnYmUT4D-34" value="" style="group" vertex="1" connectable="0" parent="1">
          <mxGeometry x="365" y="20" width="170" height="100" as="geometry" />
        </mxCell>
        <mxCell id="sXNOt7XCanMBQnYmUT4D-32" value="&lt;font style=&quot;font-size: 18px;&quot;&gt;PushApplication&lt;/font&gt;" style="rounded=1;whiteSpace=wrap;html=1;" vertex="1" parent="sXNOt7XCanMBQnYmUT4D-34">
          <mxGeometry y="40" width="170" height="60" as="geometry" />
        </mxCell>
        <mxCell id="sXNOt7XCanMBQnYmUT4D-33" value="broadcasts new order to all other userse" style="text;html=1;strokeColor=none;fillColor=none;align=center;verticalAlign=middle;whiteSpace=wrap;rounded=0;" vertex="1" parent="sXNOt7XCanMBQnYmUT4D-34">
          <mxGeometry x="20" width="120" height="30" as="geometry" />
        </mxCell>
        <mxCell id="sXNOt7XCanMBQnYmUT4D-35" value="&lt;font style=&quot;font-size: 16px;&quot;&gt;&lt;b&gt;&lt;u&gt;Table name: function&lt;br&gt;&lt;/u&gt;&lt;/b&gt;match_details: store trade prices&lt;br&gt;&lt;br&gt;events: store TransferEvent/OrderRequestEvent&lt;br&gt;&lt;br&gt;orders: active orders&lt;br&gt;&lt;br&gt;ticks: price/quantity at specific time??&lt;br&gt;&lt;br&gt;&lt;br&gt;unique_events:??&lt;br&gt;&lt;/font&gt;" style="rounded=0;whiteSpace=wrap;html=1;" vertex="1" parent="1">
          <mxGeometry x="40" y="780" width="280" height="420" as="geometry" />
        </mxCell>
      </root>
    </mxGraphModel>
  </diagram>
</mxfile>
